HIERARCHY
ROOT Hips
{
	OFFSET 0.00000 0.00000 0.00000
	CHANNELS 6 Xposition Yposition Zposition Zrotation Yrotation Xrotation 
	JOINT LHipJoint
	{
		OFFSET 0 0 0
		CHANNELS 3 Zrotation Yrotation Xrotation
		JOINT LeftHip
		{
			OFFSET 1.44960 -1.75505 0.85172
			CHANNELS 3 Zrotation Yrotation Xrotation
			JOINT LeftKnee
			{
				OFFSET 2.40573 -6.60971 0.00000
				CHANNELS 3 Zrotation Yrotation Xrotation
				JOINT LeftAnkle
				{
					OFFSET 2.58773 -7.10974 0.00000
					CHANNELS 3 Zrotation Yrotation Xrotation
					JOINT LeftToe
					{
						OFFSET 0.18252 -0.50147 1.77316
						CHANNELS 3 Zrotation Yrotation Xrotation
						End Site
						{
							OFFSET 0.00000 -0.00000 0.92990
						}
					}
				}
			}
		}
	}
	JOINT RHipJoint
	{
		OFFSET 0 0 0
		CHANNELS 3 Zrotation Yrotation Xrotation
		JOINT RightHip
		{
			OFFSET -1.40744 -1.75505 0.85172
			CHANNELS 3 Zrotation Yrotation Xrotation
			JOINT RightKnee
			{
				OFFSET -2.43714 -6.69600 0.00000
				CHANNELS 3 Zrotation Yrotation Xrotation
				JOINT RightAnkle
				{
					OFFSET -2.51650 -6.91404 0.00000
					CHANNELS 3 Zrotation Yrotation Xrotation
					JOINT RightToe
					{
						OFFSET -0.25383 -0.69740 1.96384
						CHANNELS 3 Zrotation Yrotation Xrotation
						End Site
						{
							OFFSET -0.00000 -0.00000 1.04244
						}
					}
				}
			}
		}
	}
	JOINT lowerback
	{
		OFFSET 0 0 0
		CHANNELS 3 Zrotation Yrotation Xrotation
		JOINT Chest
		{
			OFFSET 0.00579 2.14458 -0.24367
			CHANNELS 3 Zrotation Yrotation Xrotation
			JOINT Chest2
			{
				OFFSET 0.05899 2.16316 -0.04515
				CHANNELS 3 Zrotation Yrotation Xrotation
				JOINT lowerneck
				{
					OFFSET 0 0 0
					CHANNELS 3 Zrotation Yrotation Xrotation
					JOINT Neck
					{
						OFFSET -0.01650 1.59577 0.24841
						CHANNELS 3 Zrotation Yrotation Xrotation
						JOINT Head
						{
							OFFSET -0.01016 1.63072 -0.17782
							CHANNELS 3 Zrotation Yrotation Xrotation
							End Site
							{
								OFFSET -0.00250 1.64111 -0.08717
							}
						}
					}
				}
				JOINT LeftCollar
				{
					OFFSET 0 0 0
					CHANNELS 3 Zrotation Yrotation Xrotation
					JOINT LeftShoulder
					{
						OFFSET 3.17745 0.95174 -0.45729
CHANNELS 3 Zrotation Xrotation Yrotation
						JOINT LeftElbow
						{
OFFSET 0 -4.934850 0.000000
CHANNELS 3 Zrotation Xrotation Yrotation
							JOINT LeftWrist
							{
OFFSET 0 -3.417190 -0.000000
CHANNELS 3 Zrotation Xrotation Yrotation
								JOINT lhand
								{
									OFFSET 0 0 0
CHANNELS 3 Zrotation Xrotation Yrotation
									JOINT LFingers
									{
OFFSET 0 -0.624100 -0.000000
CHANNELS 3 Zrotation Xrotation Yrotation
										End Site
										{
OFFSET 0 -0.503170 -0.000000
										}
									}
								}
								JOINT LThumb
								{
OFFSET 0 0.000000 0.000000
CHANNELS 3 Zrotation Xrotation Yrotation
									End Site
									{
OFFSET 0 -0.510850 0.510850
									}
								}
							}
						}
					}
				}
				JOINT RightCollar
				{
					OFFSET 0 0 0
					CHANNELS 3 Zrotation Yrotation Xrotation
					JOINT RightShoulder
					{
						OFFSET -2.87924 1.13038 -0.75204
CHANNELS 3 Zrotation Xrotation Yrotation
						JOINT RightElbow
						{
OFFSET 0 -5.220340 0.000000
CHANNELS 3 Zrotation Xrotation Yrotation
							JOINT RightWrist
							{
OFFSET 0 -3.418090 -0.000000
CHANNELS 3 Zrotation Xrotation Yrotation
								JOINT rhand
								{
									OFFSET 0 0 0
CHANNELS 3 Zrotation Xrotation Yrotation
									JOINT RFingers
									{
OFFSET 0 -0.775340 -0.000000
CHANNELS 3 Zrotation Xrotation Yrotation
										End Site
										{
OFFSET 0 -0.625100 -0.000000
										}
									}
								}
								JOINT RThumb
								{
OFFSET 0 0.000000 0.000000
CHANNELS 3 Zrotation Xrotation Yrotation
									End Site
									{
OFFSET 0 -0.634640 0.634640
									}
								}
							}
						}
					}
				}
			}
		}
	}
}
MOTION
Frames: 4
Frame Time: 0.008333333333333333
0.927900 17.274396 -22.698143 5.531397 10.184742 3.883151 0.000000 0.000000 0.000000 -31.843218 0.142444 11.897853 0.107140 2.110937 5.812252 0.234626 -12.575859 -11.652007 0.756898 5.548848 15.482654 0.000000 0.000000 0.000000 8.510615 8.696424 -31.229018 -0.762934 -5.577709 15.563962 -0.247617 -11.109280 -18.990111 -0.108567 2.118284 -5.833005 -7.481798 -3.179258 8.277908 -0.437052 -5.093788 -2.295291 4.402486 -2.209002 -6.465637 -2.834360 -0.173413 -17.088899 -0.062071 0.507657 16.522825 0.503290 0.053430 7.921468 0.000000 0.000000 0.000000 5.046708 -9.117120 -38.516582 22.480250 -33.515299 6.849230 4.650820 6.729314 -39.714477 0.000000 0.000000 0.000000 -7.125000 0.000000 0.000000 -40.016776 65.492446 21.311291 0.000000 0.000000 0.000000 -5.070613 -3.753390 0.809905 -15.920831 -25.413188 -3.611896 -10.481581 -16.749900 -26.611086 0.000000 0.000000 0.000000 7.125000 0.000000 0.000000 11.675672 3.457164 11.189035
0.924996 17.262597 -22.534276 5.436592 10.144204 3.892273 0.000000 0.000000 0.000000 -31.675107 0.188321 12.064886 0.135949 2.366517 6.520170 0.282074 -12.471610 -12.114603 0.615251 5.020006 13.965650 0.000000 0.000000 0.000000 9.124206 8.279287 -31.157030 -0.796741 -5.697483 15.909149 -0.237754 -11.109318 -18.877289 -0.048873 1.387323 -3.815955 -7.324606 -3.184977 8.419686 -0.419080 -5.098697 -2.343037 4.348026 -2.209392 -6.608089 -3.031469 -0.106776 -16.752403 0.320781 0.558817 16.224342 0.666350 0.107432 7.760158 0.000000 0.000000 0.000000 5.029539 -9.005513 -38.427964 22.070977 -33.056677 6.624744 4.426306 7.382816 -39.033518 0.000000 0.000000 0.000000 -7.125000 0.000000 0.000000 -39.258453 64.913230 20.341319 0.000000 0.000000 0.000000 -5.087618 -3.495789 0.775082 -15.836975 -25.299076 -3.576055 -9.975472 -16.649432 -26.836412 0.000000 0.000000 0.000000 7.125000 0.000000 0.000000 11.985589 3.295573 11.537479
0.913562 17.251402 -22.369525 5.051053 10.265332 4.019733 0.000000 0.000000 0.000000 -31.094414 0.052632 12.289308 0.161001 2.585306 7.126316 0.308161 -12.551076 -12.433533 0.629172 5.075575 14.124305 0.000000 0.000000 0.000000 10.156453 7.719435 -31.316586 -0.845101 -5.863536 16.388876 -0.183577 -11.024135 -18.135393 -0.074894 1.764998 -4.856737 -6.904170 -3.234508 8.478872 -0.295185 -5.112860 -2.295389 4.250002 -2.232292 -6.610731 -2.719083 -0.075622 -17.209671 -0.036627 0.609498 16.407628 0.504529 0.112809 7.902582 0.000000 0.000000 0.000000 4.955352 -9.203018 -38.199057 21.474406 -32.377961 6.302043 4.846835 8.439365 -38.423108 0.000000 0.000000 0.000000 -7.125000 0.000000 0.000000 -37.983265 64.565073 19.282571 0.000000 0.000000 0.000000 -5.123017 -3.864596 0.035062 -15.472785 -24.800580 -3.421794 -9.404948 -15.923151 -26.991138 0.000000 0.000000 0.000000 7.125000 0.000000 0.000000 12.330932 3.211208 11.904127
0.899349 17.243085 -22.199763 4.803769 10.253529 4.076414 0.000000 0.000000 0.000000 -30.687178 0.091113 12.568164 0.169466 2.650760 7.307959 0.287554 -12.395281 -12.139400 0.512688 4.583886 12.726392 0.000000 0.000000 0.000000 10.846721 7.744919 -31.190981 -0.926541 -6.131568 17.166790 -0.246136 -10.497242 -18.280479 -0.020232 0.886376 -2.436361 -6.351755 -3.417614 8.587613 -0.431092 -5.307768 -2.229668 3.830258 -2.355427 -6.638133 -2.504707 0.123807 -17.416795 0.198630 0.786197 16.330463 0.568563 0.234703 7.909220 0.000000 0.000000 0.000000 5.319095 -9.165953 -37.489278 21.039918 -31.873025 6.071828 4.357765 8.571086 -38.879628 0.000000 0.000000 0.000000 -7.125000 0.000000 0.000000 -39.102624 64.778043 20.125419 0.000000 0.000000 0.000000 -4.659338 -3.846932 0.150656 -15.393691 -24.691576 -3.388789 -9.429849 -15.951743 -26.999584 0.000000 0.000000 0.000000 7.125000 0.000000 0.000000 12.316325 3.199805 11.892219
